<?xml version="1.0" encoding="utf-8"?>
<!-- Generator: Adobe Illustrator 21.1.0, SVG Export Plug-In . SVG Version: 6.00 Build 0)  -->
<svg version="1.1" id="Layer_1" xmlns:ev="http://www.w3.org/2001/xml-events"
	 xmlns="http://www.w3.org/2000/svg" xmlns:xlink="http://www.w3.org/1999/xlink" x="0px" y="0px" viewBox="0 0 1920 974"
	 style="enable-background:new 0 0 1920 974;" xml:space="preserve">
<style type="text/css">
	.st0{fill:#FFFFFF;}
	.st1{fill:none;stroke:#848484;stroke-width:2;stroke-linecap:round;stroke-linejoin:round;stroke-miterlimit:10;}
	.st2{fill:#BE2026;}
	.st3{font-family:'Helvetica';}
	.st4{font-size:12.5078px;}
	.st5{fill:#BFC431;}
	.st6{fill:#198C44;}
	.st7{fill:#7C3895;}
	.st8{fill:#F6862C;}
	.st9{fill:#45BCEC;}
	.st10{fill:#3953A4;}
	.st11{clip-path:url(#SVGID_2_);}
	.st12{font-family:'ArialMT';}
	.st13{font-size:24px;}
	.st14{clip-path:url(#SVGID_4_);}
	.st15{clip-path:url(#SVGID_2_);fill:#CB2026;}
	.st16{clip-path:url(#SVGID_2_);fill:#F89938;}
	.st17{clip-path:url(#SVGID_2_);fill:#CBCB2C;}
	.st18{clip-path:url(#SVGID_2_);fill:#109A48;}
	.st19{clip-path:url(#SVGID_2_);fill:#34C6F4;}
	.st20{clip-path:url(#SVGID_2_);fill:#3953A4;}
	.st21{clip-path:url(#SVGID_2_);fill:#7E69AF;}
	.st22{fill:#662B82;stroke:#FFFFFF;stroke-miterlimit:10;}
	.st23{fill:none;}
	.st24{fill:#231F20;}
	.st25{font-size:48px;}
	.st26{font-size:60px;}
</style>
<title></title>
<desc>
	Creator: FreeHEP Graphics2D Driver Producer: org.freehep.graphicsio.svg.SVGGraphics2D Revision Source:  Date: Tuesday, June 19, 2018 1:35:41 PM CDT
	</desc>
<g>
	<g>
		<path class="st0" d="M0,0h1920v974H0V0z"/>
	</g>
	<g transform="matrix(0.6253889494084502, 0, 0, 0.6253889494084502, 1322.3016476413613, 185.97551440625278)">
		<g>
			<path class="st1" d="M-391.2-21.2l82.9,223.9"/>
		</g>
	</g>
	<g transform="matrix(0.6253889494084502, 0, 0, 0.6253889494084502, 1322.3016476413613, 185.97551440625278)">
		<g>
			<path class="st1" d="M-435.2-34.7L-564-20.9"/>
		</g>
	</g>
	<g transform="matrix(0.6253889494084502, 0, 0, 0.6253889494084502, 1322.3016476413613, 185.97551440625278)">
		<g>
			<path class="st1" d="M-404.5-21.2l-86.4,223.5"/>
		</g>
	</g>
	<g transform="matrix(0.6253889494084502, 0, 0, 0.6253889494084502, 1322.3016476413613, 185.97551440625278)">
		<g>
			<path class="st1" d="M-410.4-21.2L-629.8,280"/>
		</g>
	</g>
	<g transform="matrix(0.6253889494084502, 0, 0, 0.6253889494084502, 1322.3016476413613, 185.97551440625278)">
		<g>
			<path class="st1" d="M-396.9-21.2l16.7,364.8"/>
		</g>
	</g>
	<g transform="matrix(0.6253889494084502, 0, 0, 0.6253889494084502, 1322.3016476413613, 185.97551440625278)">
		<g>
			<path class="st1" d="M-408.1-21.2l-64.3,108.6"/>
		</g>
	</g>
	<g transform="matrix(0.6253889494084502, 0, 0, 0.6253889494084502, 1322.3016476413613, 185.97551440625278)">
		<g>
			<path class="st1" d="M-593.8,0.6l88.5,201.6"/>
		</g>
	</g>
	<g transform="matrix(0.6253889494084502, 0, 0, 0.6253889494084502, 1322.3016476413613, 185.97551440625278)">
		<g>
			<path class="st1" d="M-603.8,0.6L-640.2,280"/>
		</g>
	</g>
	<g transform="matrix(0.6253889494084502, 0, 0, 0.6253889494084502, 1322.3016476413613, 185.97551440625278)">
		<g>
			<path class="st1" d="M-591.2,0.6l201.5,343"/>
		</g>
	</g>
	<g transform="matrix(0.6253889494084502, 0, 0, 0.6253889494084502, 1322.3016476413613, 185.97551440625278)">
		<g>
			<path class="st1" d="M-584.5,0.6l84.7,86.8"/>
		</g>
	</g>
	<g transform="matrix(0.6253889494084502, 0, 0, 0.6253889494084502, 1322.3016476413613, 185.97551440625278)">
		<g>
			<path class="st1" d="M-323.9,202.7L-579.4,0.6"/>
		</g>
	</g>
	<g transform="matrix(0.6253889494084502, 0, 0, 0.6253889494084502, 1322.3016476413613, 185.97551440625278)">
		<g>
			<path class="st1" d="M-329.2,202.7l-126-80.3"/>
		</g>
	</g>
	<g transform="matrix(0.6253889494084502, 0, 0, 0.6253889494084502, 1322.3016476413613, 185.97551440625278)">
		<g>
			<path class="st1" d="M-495.3,202.2l10.4-79.9"/>
		</g>
	</g>
	<g transform="matrix(0.6253889494084502, 0, 0, 0.6253889494084502, 1322.3016476413613, 185.97551440625278)">
		<g>
			<path class="st1" d="M-628,280l130.8-157.7"/>
		</g>
	</g>
	<g transform="matrix(0.6253889494084502, 0, 0, 0.6253889494084502, 1322.3016476413613, 185.97551440625278)">
		<g>
			<path class="st1" d="M-825.7-81.4l-109.7-112"/>
		</g>
	</g>
	<g transform="matrix(0.6253889494084502, 0, 0, 0.6253889494084502, 1322.3016476413613, 185.97551440625278)">
		<g>
			<path class="st1" d="M-779.2-119l-20.1,37.5"/>
		</g>
	</g>
	<g transform="matrix(0.6253889494084502, 0, 0, 0.6253889494084502, 1322.3016476413613, 185.97551440625278)">
		<g>
			<path class="st1" d="M-818.6-227l9,145.6"/>
		</g>
	</g>
	<g transform="matrix(0.6253889494084502, 0, 0, 0.6253889494084502, 1322.3016476413613, 185.97551440625278)">
		<g>
			<path class="st1" d="M-1103.8,35.6l-15.4,219.2"/>
		</g>
	</g>
	<g transform="matrix(0.6253889494084502, 0, 0, 0.6253889494084502, 1322.3016476413613, 185.97551440625278)">
		<g>
			<path class="st1" d="M-1118.1,35.6l-45.6,51.4"/>
		</g>
	</g>
	<g transform="matrix(0.6253889494084502, 0, 0, 0.6253889494084502, 1322.3016476413613, 185.97551440625278)">
		<g>
			<path class="st1" d="M-1094.3,35.6l54.3,115.7"/>
		</g>
	</g>
	<g transform="matrix(0.6253889494084502, 0, 0, 0.6253889494084502, 1322.3016476413613, 185.97551440625278)">
		<g>
			<path class="st1" d="M-1741.4,598.4l52.4,310.2"/>
		</g>
	</g>
	<g transform="matrix(0.6253889494084502, 0, 0, 0.6253889494084502, 1322.3016476413613, 185.97551440625278)">
		<g>
			<path class="st1" d="M-1508.1,440.1l-171.5,468.5"/>
		</g>
	</g>
	<g transform="matrix(0.6253889494084502, 0, 0, 0.6253889494084502, 1322.3016476413613, 185.97551440625278)">
		<g>
			<path class="st1" d="M-1238.6,640l-420,268.5"/>
		</g>
	</g>
	<g transform="matrix(0.6253889494084502, 0, 0, 0.6253889494084502, 1322.3016476413613, 185.97551440625278)">
		<g>
			<path class="st1" d="M-1311,907.3l-337.5,16.8"/>
		</g>
	</g>
	<g transform="matrix(0.6253889494084502, 0, 0, 0.6253889494084502, 1322.3016476413613, 185.97551440625278)">
		<g>
			<path class="st1" d="M-1436.8,979.2l-211.7-45.1"/>
		</g>
	</g>
	<g transform="matrix(0.6253889494084502, 0, 0, 0.6253889494084502, 1322.3016476413613, 185.97551440625278)">
		<g>
			<path class="st1" d="M-1651.3,485.3l-33.4,423.2"/>
		</g>
	</g>
	<g transform="matrix(0.6253889494084502, 0, 0, 0.6253889494084502, 1322.3016476413613, 185.97551440625278)">
		<g>
			<path class="st1" d="M-1583.4,977.7l-68.2-34.3"/>
		</g>
	</g>
	<g transform="matrix(0.6253889494084502, 0, 0, 0.6253889494084502, 1322.3016476413613, 185.97551440625278)">
		<g>
			<path class="st1" d="M-1435.5,444.8l-241.4,463.7"/>
		</g>
	</g>
	<g transform="matrix(0.6253889494084502, 0, 0, 0.6253889494084502, 1322.3016476413613, 185.97551440625278)">
		<g>
			<path class="st1" d="M-1717.7,886.9l17.5,21.6"/>
		</g>
	</g>
	<g transform="matrix(0.6253889494084502, 0, 0, 0.6253889494084502, 1322.3016476413613, 185.97551440625278)">
		<g>
			<path class="st1" d="M-1753.4,818.6l56.4,89.9"/>
		</g>
	</g>
	<g transform="matrix(0.6253889494084502, 0, 0, 0.6253889494084502, 1322.3016476413613, 185.97551440625278)">
		<g>
			<path class="st1" d="M-1770,744.3l75.9,164.3"/>
		</g>
	</g>
	<g transform="matrix(0.6253889494084502, 0, 0, 0.6253889494084502, 1322.3016476413613, 185.97551440625278)">
		<g>
			<path class="st1" d="M-1258.7,571.6l-406.2,336.9"/>
		</g>
	</g>
	<g transform="matrix(0.6253889494084502, 0, 0, 0.6253889494084502, 1322.3016476413613, 185.97551440625278)">
		<g>
			<path class="st1" d="M-1510,984.9l-138.5-46.3"/>
		</g>
	</g>
	<g transform="matrix(0.6253889494084502, 0, 0, 0.6253889494084502, 1322.3016476413613, 185.97551440625278)">
		<g>
			<path class="st1" d="M-1614.1,952.2l181.4-507.4"/>
		</g>
	</g>
	<g transform="matrix(0.6253889494084502, 0, 0, 0.6253889494084502, 1322.3016476413613, 185.97551440625278)">
		<g>
			<path class="st1" d="M-1639.8,952.2l-72.6-65.3"/>
		</g>
	</g>
	<g transform="matrix(0.6253889494084502, 0, 0, 0.6253889494084502, 1322.3016476413613, 185.97551440625278)">
		<g>
			<path class="st1" d="M-1635.3,952.2l-114.1-133.6"/>
		</g>
	</g>
	<g transform="matrix(0.6253889494084502, 0, 0, 0.6253889494084502, 1322.3016476413613, 185.97551440625278)">
		<g>
			<path class="st1" d="M-1631.7,952.2l-135.1-208"/>
		</g>
	</g>
	<g transform="matrix(0.6253889494084502, 0, 0, 0.6253889494084502, 1322.3016476413613, 185.97551440625278)">
		<g>
			<path class="st1" d="M-1604.2,952.2l350.5-380.6"/>
		</g>
	</g>
	<g transform="matrix(0.6253889494084502, 0, 0, 0.6253889494084502, 1322.3016476413613, 185.97551440625278)">
		<g>
			<path class="st1" d="M-1582.8,976.8l72.8,13.6"/>
		</g>
	</g>
	<g transform="matrix(0.6253889494084502, 0, 0, 0.6253889494084502, 1322.3016476413613, 185.97551440625278)">
		<g>
			<path class="st1" d="M-1738.8,598.4l112.9,353.9"/>
		</g>
	</g>
	<g transform="matrix(0.6253889494084502, 0, 0, 0.6253889494084502, 1322.3016476413613, 185.97551440625278)">
		<g>
			<path class="st1" d="M-1505.5,440.1l-111,512.2"/>
		</g>
	</g>
	<g transform="matrix(0.6253889494084502, 0, 0, 0.6253889494084502, 1322.3016476413613, 185.97551440625278)">
		<g>
			<path class="st1" d="M-1231.9,640l-367.9,312.2"/>
		</g>
	</g>
	<g transform="matrix(0.6253889494084502, 0, 0, 0.6253889494084502, 1322.3016476413613, 185.97551440625278)">
		<g>
			<path class="st1" d="M-1311,912.4l-271.8,50.4"/>
		</g>
	</g>
	<g transform="matrix(0.6253889494084502, 0, 0, 0.6253889494084502, 1322.3016476413613, 185.97551440625278)">
		<g>
			<path class="st1" d="M-1436.8,984.2l-146-11.5"/>
		</g>
	</g>
	<g transform="matrix(0.6253889494084502, 0, 0, 0.6253889494084502, 1322.3016476413613, 185.97551440625278)">
		<g>
			<path class="st1" d="M-1648.9,485.3l27.5,466.9"/>
		</g>
	</g>
	<g transform="matrix(0.6253889494084502, 0, 0, 0.6253889494084502, 1322.3016476413613, 185.97551440625278)">
		<g>
			<path class="st1" d="M-1586.5,981.7l3.7,1.3"/>
		</g>
	</g>
	<g transform="matrix(0.6253889494084502, 0, 0, 0.6253889494084502, 1322.3016476413613, 185.97551440625278)">
		<g>
			<path class="st1" d="M-1740.1,851.9l-15.9-33.3"/>
		</g>
	</g>
	<g transform="matrix(0.6253889494084502, 0, 0, 0.6253889494084502, 1322.3016476413613, 185.97551440625278)">
		<g>
			<path class="st1" d="M-1737.5,851.9l-35-107.6"/>
		</g>
	</g>
	<g transform="matrix(0.6253889494084502, 0, 0, 0.6253889494084502, 1322.3016476413613, 185.97551440625278)">
		<g>
			<path class="st1" d="M-1704.4,851.9l439.3-280.3"/>
		</g>
	</g>
	<g transform="matrix(0.6253889494084502, 0, 0, 0.6253889494084502, 1322.3016476413613, 185.97551440625278)">
		<g>
			<path class="st1" d="M-1697,886.6l189.7,93.7"/>
		</g>
	</g>
	<g transform="matrix(0.6253889494084502, 0, 0, 0.6253889494084502, 1322.3016476413613, 185.97551440625278)">
		<g>
			<path class="st1" d="M-1743.6,598.4l11.1,253.5"/>
		</g>
	</g>
	<g transform="matrix(0.6253889494084502, 0, 0, 0.6253889494084502, 1322.3016476413613, 185.97551440625278)">
		<g>
			<path class="st1" d="M-1510.8,440.1l-212,411.8"/>
		</g>
	</g>
	<g transform="matrix(0.6253889494084502, 0, 0, 0.6253889494084502, 1322.3016476413613, 185.97551440625278)">
		<g>
			<path class="st1" d="M-1246.7,639.4l-449.6,213.2"/>
		</g>
	</g>
	<g transform="matrix(0.6253889494084502, 0, 0, 0.6253889494084502, 1322.3016476413613, 185.97551440625278)">
		<g>
			<path class="st1" d="M-1311,902.5l-383.3-30.2"/>
		</g>
	</g>
	<g transform="matrix(0.6253889494084502, 0, 0, 0.6253889494084502, 1322.3016476413613, 185.97551440625278)">
		<g>
			<path class="st1" d="M-1436.8,973.9l-257.5-91.2"/>
		</g>
	</g>
	<g transform="matrix(0.6253889494084502, 0, 0, 0.6253889494084502, 1322.3016476413613, 185.97551440625278)">
		<g>
			<path class="st1" d="M-1653.5,485.3l-74.7,366.6"/>
		</g>
	</g>
	<g transform="matrix(0.6253889494084502, 0, 0, 0.6253889494084502, 1322.3016476413613, 185.97551440625278)">
		<g>
			<path class="st1" d="M-1574.5,977.5l-131.8-90.6"/>
		</g>
	</g>
	<g transform="matrix(0.6253889494084502, 0, 0, 0.6253889494084502, 1322.3016476413613, 185.97551440625278)">
		<g>
			<path class="st1" d="M-1438.5,444.8l-281.2,407.1"/>
		</g>
	</g>
	<g transform="matrix(0.6253889494084502, 0, 0, 0.6253889494084502, 1322.3016476413613, 185.97551440625278)">
		<g>
			<path class="st1" d="M-1545.3,977.5l115.1-532.7"/>
		</g>
	</g>
	<g transform="matrix(0.6253889494084502, 0, 0, 0.6253889494084502, 1322.3016476413613, 185.97551440625278)">
		<g>
			<path class="st1" d="M-1568.5,977.5l-176.4-158.8"/>
		</g>
	</g>
	<g transform="matrix(0.6253889494084502, 0, 0, 0.6253889494084502, 1322.3016476413613, 185.97551440625278)">
		<g>
			<path class="st1" d="M-1564,977.5l-199.2-233.2"/>
		</g>
	</g>
	<g transform="matrix(0.6253889494084502, 0, 0, 0.6253889494084502, 1322.3016476413613, 185.97551440625278)">
		<g>
			<path class="st1" d="M-1536.7,977.5l286.7-405.8"/>
		</g>
	</g>
	<g transform="matrix(0.6253889494084502, 0, 0, 0.6253889494084502, 1322.3016476413613, 185.97551440625278)">
		<g>
			<path class="st1" d="M-1511.6,996.2l1.5,0"/>
		</g>
	</g>
	<g transform="matrix(0.6253889494084502, 0, 0, 0.6253889494084502, 1322.3016476413613, 185.97551440625278)">
		<g>
			<path class="st1" d="M-1736.1,598.4l178.8,379.1"/>
		</g>
	</g>
	<g transform="matrix(0.6253889494084502, 0, 0, 0.6253889494084502, 1322.3016476413613, 185.97551440625278)">
		<g>
			<path class="st1" d="M-1503.2,440.1l-44.4,537.4"/>
		</g>
	</g>
	<g transform="matrix(0.6253889494084502, 0, 0, 0.6253889494084502, 1322.3016476413613, 185.97551440625278)">
		<g>
			<path class="st1" d="M-1227.1,640l-306.1,337.4"/>
		</g>
	</g>
	<g transform="matrix(0.6253889494084502, 0, 0, 0.6253889494084502, 1322.3016476413613, 185.97551440625278)">
		<g>
			<path class="st1" d="M-1311,917.7l-200.5,65.2"/>
		</g>
	</g>
	<g transform="matrix(0.6253889494084502, 0, 0, 0.6253889494084502, 1322.3016476413613, 185.97551440625278)">
		<g>
			<path class="st1" d="M-1436.8,989.1l-74.8,3.9"/>
		</g>
	</g>
	<g transform="matrix(0.6253889494084502, 0, 0, 0.6253889494084502, 1322.3016476413613, 185.97551440625278)">
		<g>
			<path class="st1" d="M-1646.6,485.3l94.2,492.2"/>
		</g>
	</g>
	<g transform="matrix(0.6253889494084502, 0, 0, 0.6253889494084502, 1322.3016476413613, 185.97551440625278)">
		<g>
			<path class="st1" d="M-1767.6,783.6l-7.3-39.4"/>
		</g>
	</g>
	<g transform="matrix(0.6253889494084502, 0, 0, 0.6253889494084502, 1322.3016476413613, 185.97551440625278)">
		<g>
			<path class="st1" d="M-1728.7,784.4l455.5-213.6"/>
		</g>
	</g>
	<g transform="matrix(0.6253889494084502, 0, 0, 0.6253889494084502, 1322.3016476413613, 185.97551440625278)">
		<g>
			<path class="st1" d="M-1738.3,818.6l239.8,161.3"/>
		</g>
	</g>
	<g transform="matrix(0.6253889494084502, 0, 0, 0.6253889494084502, 1322.3016476413613, 185.97551440625278)">
		<g>
			<path class="st1" d="M-1746,598.4l-16.8,185.3"/>
		</g>
	</g>
	<g transform="matrix(0.6253889494084502, 0, 0, 0.6253889494084502, 1322.3016476413613, 185.97551440625278)">
		<g>
			<path class="st1" d="M-1513.9,440.1l-238.3,343.6"/>
		</g>
	</g>
	<g transform="matrix(0.6253889494084502, 0, 0, 0.6253889494084502, 1322.3016476413613, 185.97551440625278)">
		<g>
			<path class="st1" d="M-1248.7,634.7L-1726.8,789"/>
		</g>
	</g>
	<g transform="matrix(0.6253889494084502, 0, 0, 0.6253889494084502, 1322.3016476413613, 185.97551440625278)">
		<g>
			<path class="st1" d="M-1311,897.5l-415.8-88.4"/>
		</g>
	</g>
	<g transform="matrix(0.6253889494084502, 0, 0, 0.6253889494084502, 1322.3016476413613, 185.97551440625278)">
		<g>
			<path class="st1" d="M-1433.4,969.8l-296.8-151.2"/>
		</g>
	</g>
	<g transform="matrix(0.6253889494084502, 0, 0, 0.6253889494084502, 1322.3016476413613, 185.97551440625278)">
		<g>
			<path class="st1" d="M-1655.9,485.3l-102.4,298.3"/>
		</g>
	</g>
	<g transform="matrix(0.6253889494084502, 0, 0, 0.6253889494084502, 1322.3016476413613, 185.97551440625278)">
		<g>
			<path class="st1" d="M-1442.2,444.8l-306.3,338.8"/>
		</g>
	</g>
	<g transform="matrix(0.6253889494084502, 0, 0, 0.6253889494084502, 1322.3016476413613, 185.97551440625278)">
		<g>
			<path class="st1" d="M-1732.9,598.4l249,381.6"/>
		</g>
	</g>
	<g transform="matrix(0.6253889494084502, 0, 0, 0.6253889494084502, 1322.3016476413613, 185.97551440625278)">
		<g>
			<path class="st1" d="M-1500.9,440.1l27.5,539.9"/>
		</g>
	</g>
	<g transform="matrix(0.6253889494084502, 0, 0, 0.6253889494084502, 1322.3016476413613, 185.97551440625278)">
		<g>
			<path class="st1" d="M-1223.4,640l-236.9,339.9"/>
		</g>
	</g>
	<g transform="matrix(0.6253889494084502, 0, 0, 0.6253889494084502, 1322.3016476413613, 185.97551440625278)">
		<g>
			<path class="st1" d="M-1309.3,922l-127.3,58.9"/>
		</g>
	</g>
	<g transform="matrix(0.6253889494084502, 0, 0, 0.6253889494084502, 1322.3016476413613, 185.97551440625278)">
		<g>
			<path class="st1" d="M-1436.8,992.4l1.8-0.3"/>
		</g>
	</g>
	<g transform="matrix(0.6253889494084502, 0, 0, 0.6253889494084502, 1322.3016476413613, 185.97551440625278)">
		<g>
			<path class="st1" d="M-1644.1,485.3l165.7,494.6"/>
		</g>
	</g>
	<g transform="matrix(0.6253889494084502, 0, 0, 0.6253889494084502, 1322.3016476413613, 185.97551440625278)">
		<g>
			<path class="st1" d="M-1427.8,444.8l-43.3,535.1"/>
		</g>
	</g>
	<g transform="matrix(0.6253889494084502, 0, 0, 0.6253889494084502, 1322.3016476413613, 185.97551440625278)">
		<g>
			<path class="st1" d="M-1758.4,744.3l266.1,235.7"/>
		</g>
	</g>
	<g transform="matrix(0.6253889494084502, 0, 0, 0.6253889494084502, 1322.3016476413613, 185.97551440625278)">
		<g>
			<path class="st1" d="M-1246.9,571.6l-216.3,408.3"/>
		</g>
	</g>
	<g transform="matrix(0.6253889494084502, 0, 0, 0.6253889494084502, 1322.3016476413613, 185.97551440625278)">
		<g>
			<path class="st1" d="M-1407.7,969.6l-233.7-484.3"/>
		</g>
	</g>
	<g transform="matrix(0.6253889494084502, 0, 0, 0.6253889494084502, 1322.3016476413613, 185.97551440625278)">
		<g>
			<path class="st1" d="M-1400.1,969.6l-25.4-524.8"/>
		</g>
	</g>
	<g transform="matrix(0.6253889494084502, 0, 0, 0.6253889494084502, 1322.3016476413613, 185.97551440625278)">
		<g>
			<path class="st1" d="M-1424.8,969.6l-327.9-225.4"/>
		</g>
	</g>
	<g transform="matrix(0.6253889494084502, 0, 0, 0.6253889494084502, 1322.3016476413613, 185.97551440625278)">
		<g>
			<path class="st1" d="M-1392.8,969.6l148.6-398"/>
		</g>
	</g>
	<g transform="matrix(0.6253889494084502, 0, 0, 0.6253889494084502, 1322.3016476413613, 185.97551440625278)">
		<g>
			<path class="st1" d="M-1729.5,598.4l315.3,371.3"/>
		</g>
	</g>
	<g transform="matrix(0.6253889494084502, 0, 0, 0.6253889494084502, 1322.3016476413613, 185.97551440625278)">
		<g>
			<path class="st1" d="M-1498.6,440.1l96.1,529.6"/>
		</g>
	</g>
	<g transform="matrix(0.6253889494084502, 0, 0, 0.6253889494084502, 1322.3016476413613, 185.97551440625278)">
		<g>
			<path class="st1" d="M-1220.3,640l-170,329.6"/>
		</g>
	</g>
	<g transform="matrix(0.6253889494084502, 0, 0, 0.6253889494084502, 1322.3016476413613, 185.97551440625278)">
		<g>
			<path class="st1" d="M-1300.5,923l-71.9,46.7"/>
		</g>
	</g>
	<g transform="matrix(0.6253889494084502, 0, 0, 0.6253889494084502, 1322.3016476413613, 185.97551440625278)">
		<g>
			<path class="st1" d="M-1740.6,714.8l465.5-148.7"/>
		</g>
	</g>
	<g transform="matrix(0.6253889494084502, 0, 0, 0.6253889494084502, 1322.3016476413613, 185.97551440625278)">
		<g>
			<path class="st1" d="M-1748.4,598.4l-25.7,110.9"/>
		</g>
	</g>
	<g transform="matrix(0.6253889494084502, 0, 0, 0.6253889494084502, 1322.3016476413613, 185.97551440625278)">
		<g>
			<path class="st1" d="M-1517.6,440.1l-244.6,269.2"/>
		</g>
	</g>
	<g transform="matrix(0.6253889494084502, 0, 0, 0.6253889494084502, 1322.3016476413613, 185.97551440625278)">
		<g>
			<path class="st1" d="M-1248.7,629.4l-491.9,90.4"/>
		</g>
	</g>
	<g transform="matrix(0.6253889494084502, 0, 0, 0.6253889494084502, 1322.3016476413613, 185.97551440625278)">
		<g>
			<path class="st1" d="M-1311,892.2l-429.6-152.1"/>
		</g>
	</g>
	<g transform="matrix(0.6253889494084502, 0, 0, 0.6253889494084502, 1322.3016476413613, 185.97551440625278)">
		<g>
			<path class="st1" d="M-1658.6,485.3l-110.9,224"/>
		</g>
	</g>
	<g transform="matrix(0.6253889494084502, 0, 0, 0.6253889494084502, 1322.3016476413613, 185.97551440625278)">
		<g>
			<path class="st1" d="M-1446.9,444.8l-310.6,264.5"/>
		</g>
	</g>
	<g transform="matrix(0.6253889494084502, 0, 0, 0.6253889494084502, 1322.3016476413613, 185.97551440625278)">
		<g>
			<path class="st1" d="M-777.9-154l-33.7-73"/>
		</g>
	</g>
	<g transform="matrix(0.6253889494084502, 0, 0, 0.6253889494084502, 1322.3016476413613, 185.97551440625278)">
		<g>
			<path class="st1" d="M-806.8-151.6l-108.7-44.3"/>
		</g>
	</g>
	<g transform="matrix(0.6253889494084502, 0, 0, 0.6253889494084502, 1322.3016476413613, 185.97551440625278)">
		<g>
			<path class="st1" d="M-857.2-235l-57.8,14.6"/>
		</g>
	</g>
	<g transform="matrix(0.6253889494084502, 0, 0, 0.6253889494084502, 1322.3016476413613, 185.97551440625278)">
		<g>
			<path class="st1" d="M-539.9-213.7l53.6,16.5"/>
		</g>
	</g>
	<g transform="matrix(0.6253889494084502, 0, 0, 0.6253889494084502, 1322.3016476413613, 185.97551440625278)">
		<g>
			<path class="st1" d="M-1185.9,206l48.3,48.8"/>
		</g>
	</g>
	<g transform="matrix(0.6253889494084502, 0, 0, 0.6253889494084502, 1322.3016476413613, 185.97551440625278)">
		<g>
			<path class="st1" d="M-1198.2,171l14-49.1"/>
		</g>
	</g>
	<g transform="matrix(0.6253889494084502, 0, 0, 0.6253889494084502, 1322.3016476413613, 185.97551440625278)">
		<g>
			<path class="st1" d="M-1165.7,184.2l96.3-11.1"/>
		</g>
	</g>
	<g transform="matrix(0.6253889494084502, 0, 0, 0.6253889494084502, 1322.3016476413613, 185.97551440625278)">
		<g>
			<path class="st1" d="M-1240.7,177.4l-136.3-40.3"/>
		</g>
	</g>
	<g transform="matrix(0.6253889494084502, 0, 0, 0.6253889494084502, 1322.3016476413613, 185.97551440625278)">
		<g>
			<path class="st1" d="M-1142.8,120.4l74.5,32.5"/>
		</g>
	</g>
	<g transform="matrix(0.6253889494084502, 0, 0, 0.6253889494084502, 1322.3016476413613, 185.97551440625278)">
		<g>
			<path class="st1" d="M-1216.7,107.9l-160.2,14.7"/>
		</g>
	</g>
	<g transform="matrix(0.6253889494084502, 0, 0, 0.6253889494084502, 1322.3016476413613, 185.97551440625278)">
		<g>
			<path class="st1" d="M-1126.5,254.9l-46.6-132.9"/>
		</g>
	</g>
	<g transform="matrix(0.6253889494084502, 0, 0, 0.6253889494084502, 1322.3016476413613, 185.97551440625278)">
		<g>
			<path class="st1" d="M-1155,255.1l-224.9-111.9"/>
		</g>
	</g>
	<g transform="matrix(0.6253889494084502, 0, 0, 0.6253889494084502, 1322.3016476413613, 185.97551440625278)">
		<g>
			<path class="st1" d="M-1069.4,164.7l-307.6-34.4"/>
		</g>
	</g>
	<g transform="matrix(0.6253889494084502, 0, 0, 0.6253889494084502, 1322.3016476413613, 185.97551440625278)">
		<g>
			<path class="st1" d="M-1105.4,254.9l58.6-68.5"/>
		</g>
	</g>
	<g transform="matrix(0.6253889494084502, 0, 0, 0.6253889494084502, 1322.3016476413613, 185.97551440625278)">
		<g>
			<path class="st1" d="M-339.3,220.1l-120.8-0.3"/>
		</g>
	</g>
	<g transform="matrix(0.6253889494084502, 0, 0, 0.6253889494084502, 1322.3016476413613, 185.97551440625278)">
		<g>
			<path class="st1" d="M-339.3,228.7L-605,289"/>
		</g>
	</g>
	<g transform="matrix(0.6253889494084502, 0, 0, 0.6253889494084502, 1322.3016476413613, 185.97551440625278)">
		<g>
			<path class="st1" d="M-311.4,237.7l-58.4,105.9"/>
		</g>
	</g>
	<g transform="matrix(0.6253889494084502, 0, 0, 0.6253889494084502, 1322.3016476413613, 185.97551440625278)">
		<g>
			<path class="st1" d="M-483,237.2l88.9,106.4"/>
		</g>
	</g>
	<g transform="matrix(0.6253889494084502, 0, 0, 0.6253889494084502, 1322.3016476413613, 185.97551440625278)">
		<g>
			<path class="st1" d="M-605,306.6l188.1,45.4"/>
		</g>
	</g>
	<g transform="matrix(0.6253889494084502, 0, 0, 0.6253889494084502, 1322.3016476413613, 185.97551440625278)">
		<g>
			<path class="st1" d="M-623.8,593.5l0.3-56.4"/>
		</g>
	</g>
	<g transform="matrix(0.6253889494084502, 0, 0, 0.6253889494084502, 1322.3016476413613, 185.97551440625278)">
		<g>
			<path class="st1" d="M-530.2,237.2l-79.7,42.8"/>
		</g>
	</g>
	<g transform="matrix(0.6253889494084502, 0, 0, 0.6253889494084502, 1322.3016476413613, 185.97551440625278)">
		<g>
			<path class="st1" d="M-1706.9,578.9l431.7-22.8"/>
		</g>
	</g>
	<g transform="matrix(0.6253889494084502, 0, 0, 0.6253889494084502, 1322.3016476413613, 185.97551440625278)">
		<g>
			<path class="st1" d="M-1467.2,439.8l194.9,97.1"/>
		</g>
	</g>
	<g transform="matrix(0.6253889494084502, 0, 0, 0.6253889494084502, 1322.3016476413613, 185.97551440625278)">
		<g>
			<path class="st1" d="M-1218,605l-12.9-33.4"/>
		</g>
	</g>
	<g transform="matrix(0.6253889494084502, 0, 0, 0.6253889494084502, 1322.3016476413613, 185.97551440625278)">
		<g>
			<path class="st1" d="M-1271.7,888l32.3-316.3"/>
		</g>
	</g>
	<g transform="matrix(0.6253889494084502, 0, 0, 0.6253889494084502, 1322.3016476413613, 185.97551440625278)">
		<g>
			<path class="st1" d="M-1612.4,475.7l337.3,70.6"/>
		</g>
	</g>
	<g transform="matrix(0.6253889494084502, 0, 0, 0.6253889494084502, 1322.3016476413613, 185.97551440625278)">
		<g>
			<path class="st1" d="M-1400.3,444.8l136.7,91.8"/>
		</g>
	</g>
	<g transform="matrix(0.6253889494084502, 0, 0, 0.6253889494084502, 1322.3016476413613, 185.97551440625278)">
		<g>
			<path class="st1" d="M-1215.1,640l-54.6,247.9"/>
		</g>
	</g>
	<g transform="matrix(0.6253889494084502, 0, 0, 0.6253889494084502, 1322.3016476413613, 185.97551440625278)">
		<g>
			<path class="st1" d="M-1248.7,609.3L-1612.4,481"/>
		</g>
	</g>
	<g transform="matrix(0.6253889494084502, 0, 0, 0.6253889494084502, 1322.3016476413613, 185.97551440625278)">
		<g>
			<path class="st1" d="M-1230.5,605l-176.6-160.2"/>
		</g>
	</g>
	<g transform="matrix(0.6253889494084502, 0, 0, 0.6253889494084502, 1322.3016476413613, 185.97551440625278)">
		<g>
			<path class="st1" d="M-1706.9,583.8l458.1,35.8"/>
		</g>
	</g>
	<g transform="matrix(0.6253889494084502, 0, 0, 0.6253889494084502, 1322.3016476413613, 185.97551440625278)">
		<g>
			<path class="st1" d="M-1476.3,440.1l239.7,165"/>
		</g>
	</g>
	<g transform="matrix(0.6253889494084502, 0, 0, 0.6253889494084502, 1322.3016476413613, 185.97551440625278)">
		<g>
			<path class="st1" d="M-1288.6,888l-346.3-402.7"/>
		</g>
	</g>
	<g transform="matrix(0.6253889494084502, 0, 0, 0.6253889494084502, 1322.3016476413613, 185.97551440625278)">
		<g>
			<path class="st1" d="M-1279.1,888l-141.7-443.1"/>
		</g>
	</g>
	<g transform="matrix(0.6253889494084502, 0, 0, 0.6253889494084502, 1322.3016476413613, 185.97551440625278)">
		<g>
			<path class="st1" d="M-1719,598.4l420.1,289.6"/>
		</g>
	</g>
	<g transform="matrix(0.6253889494084502, 0, 0, 0.6253889494084502, 1322.3016476413613, 185.97551440625278)">
		<g>
			<path class="st1" d="M-1493.5,440.1l211.7,447.9"/>
		</g>
	</g>
	<g transform="matrix(0.6253889494084502, 0, 0, 0.6253889494084502, 1322.3016476413613, 185.97551440625278)">
		<g>
			<path class="st1" d="M-1717.5,563.4l189-123.3"/>
		</g>
	</g>
	<g transform="matrix(0.6253889494084502, 0, 0, 0.6253889494084502, 1322.3016476413613, 185.97551440625278)">
		<g>
			<path class="st1" d="M-1729.7,563.4l65.2-78.1"/>
		</g>
	</g>
	<g transform="matrix(0.6253889494084502, 0, 0, 0.6253889494084502, 1322.3016476413613, 185.97551440625278)">
		<g>
			<path class="st1" d="M-1709.2,563.9l247.7-119.6"/>
		</g>
	</g>
	<g transform="matrix(0.6253889494084502, 0, 0, 0.6253889494084502, 1322.3016476413613, 185.97551440625278)">
		<g>
			<path class="st1" d="M-1539.2,434l-73.2,22.3"/>
		</g>
	</g>
	<g transform="matrix(0.6253889494084502, 0, 0, 0.6253889494084502, 1322.3016476413613, 185.97551440625278)">
		<g>
			<path class="st1" d="M-1464.2,424.9l0.4,0"/>
		</g>
	</g>
	<g transform="matrix(0.6253889494084502, 0, 0, 0.6253889494084502, 1322.3016476413613, 185.97551440625278)">
		<g>
			<path class="st1" d="M-1612.4,461l148.5-26.9"/>
		</g>
	</g>
	<g transform="matrix(0.6253889494084502, 0, 0, 0.6253889494084502, 1322.3016476413613, 185.97551440625278)">
		<g>
			<path class="st1" d="M71.6-6l79.2-20.4"/>
		</g>
	</g>
	<g transform="matrix(0.6253889494084502, 0, 0, 0.6253889494084502, 1322.3016476413613, 185.97551440625278)">
		<g>
			<path class="st1" d="M95.7,433.2L582,324.5"/>
		</g>
	</g>
	<g transform="matrix(0.6253889494084502, 0, 0, 0.6253889494084502, 1322.3016476413613, 185.97551440625278)">
		<g>
			<path class="st1" d="M74.1,424.1l267.3-295"/>
		</g>
	</g>
	<g transform="matrix(0.6253889494084502, 0, 0, 0.6253889494084502, 1322.3016476413613, 185.97551440625278)">
		<g>
			<path class="st1" d="M95.7,443.9l113.9,6.9"/>
		</g>
	</g>
	<g transform="matrix(0.6253889494084502, 0, 0, 0.6253889494084502, 1322.3016476413613, 185.97551440625278)">
		<g>
			<path class="st1" d="M481.8,171.1l-396.2,253"/>
		</g>
	</g>
	<g transform="matrix(0.6253889494084502, 0, 0, 0.6253889494084502, 1322.3016476413613, 185.97551440625278)">
		<g>
			<path class="st1" d="M192.3,118.2L65.5,424.1"/>
		</g>
	</g>
	<g transform="matrix(0.6253889494084502, 0, 0, 0.6253889494084502, 1322.3016476413613, 185.97551440625278)">
		<g>
			<path class="st1" d="M-54.5,205.1l104.4,219"/>
		</g>
	</g>
	<g transform="matrix(0.6253889494084502, 0, 0, 0.6253889494084502, 1322.3016476413613, 185.97551440625278)">
		<g>
			<path class="st1" d="M573.6,241L95.5,427.1"/>
		</g>
	</g>
	<g transform="matrix(0.6253889494084502, 0, 0, 0.6253889494084502, 1322.3016476413613, 185.97551440625278)">
		<g>
			<path class="st1" d="M162,113.1l-187.4,62"/>
		</g>
	</g>
	<g transform="matrix(0.6253889494084502, 0, 0, 0.6253889494084502, 1322.3016476413613, 185.97551440625278)">
		<g>
			<path class="st1" d="M237,112.2L573.3,215"/>
		</g>
	</g>
	<g transform="matrix(0.6253889494084502, 0, 0, 0.6253889494084502, 1322.3016476413613, 185.97551440625278)">
		<g>
			<path class="st1" d="M237,103.3l82.6,5.7"/>
		</g>
	</g>
	<g transform="matrix(0.6253889494084502, 0, 0, 0.6253889494084502, 1322.3016476413613, 185.97551440625278)">
		<g>
			<path class="st1" d="M201.9,118.2l42.8,317.4"/>
		</g>
	</g>
	<g transform="matrix(0.6253889494084502, 0, 0, 0.6253889494084502, 1322.3016476413613, 185.97551440625278)">
		<g>
			<path class="st1" d="M471.7,147.2L237,107.1"/>
		</g>
	</g>
	<g transform="matrix(0.6253889494084502, 0, 0, 0.6253889494084502, 1322.3016476413613, 185.97551440625278)">
		<g>
			<path class="st1" d="M-25.3,189.7l598.7,34.6"/>
		</g>
	</g>
	<g transform="matrix(0.6253889494084502, 0, 0, 0.6253889494084502, 1322.3016476413613, 185.97551440625278)">
		<g>
			<path class="st1" d="M-25.3,180.8l345-62.4"/>
		</g>
	</g>
	<g transform="matrix(0.6253889494084502, 0, 0, 0.6253889494084502, 1322.3016476413613, 185.97551440625278)">
		<g>
			<path class="st1" d="M-42.4,205.1l269.1,230.5"/>
		</g>
	</g>
	<g transform="matrix(0.6253889494084502, 0, 0, 0.6253889494084502, 1322.3016476413613, 185.97551440625278)">
		<g>
			<path class="st1" d="M471.7,155.8l-497.1,29.5"/>
		</g>
	</g>
	<g transform="matrix(0.6253889494084502, 0, 0, 0.6253889494084502, 1322.3016476413613, 185.97551440625278)">
		<g>
			<path class="st1" d="M493.9,171.1L262.4,435.6"/>
		</g>
	</g>
	<g transform="matrix(0.6253889494084502, 0, 0, 0.6253889494084502, 1322.3016476413613, 185.97551440625278)">
		<g>
			<path class="st1" d="M582.8,244L275.2,435.6"/>
		</g>
	</g>
	<g transform="matrix(0.6253889494084502, 0, 0, 0.6253889494084502, 1322.3016476413613, 185.97551440625278)">
		<g>
			<path class="st1" d="M351.5,129.1l-98.8,306.5"/>
		</g>
	</g>
	<g transform="matrix(0.6253889494084502, 0, 0, 0.6253889494084502, 1322.3016476413613, 185.97551440625278)">
		<g>
			<path class="st1" d="M-124.5,775.1l315.3-122.7"/>
		</g>
	</g>
	<g transform="matrix(0.6253889494084502, 0, 0, 0.6253889494084502, 1322.3016476413613, 185.97551440625278)">
		<g>
			<path class="st1" d="M-160.7,951.3l367.1-296"/>
		</g>
	</g>
	<g transform="matrix(0.6253889494084502, 0, 0, 0.6253889494084502, 1322.3016476413613, 185.97551440625278)">
		<g>
			<path class="st1" d="M276.6,666.3l-18.7-11"/>
		</g>
	</g>
	<g transform="matrix(0.6253889494084502, 0, 0, 0.6253889494084502, 1322.3016476413613, 185.97551440625278)">
		<g>
			<path class="st1" d="M-163.8,807.1l-16.6,144.2"/>
		</g>
	</g>
	<g transform="matrix(0.6253889494084502, 0, 0, 0.6253889494084502, 1322.3016476413613, 185.97551440625278)">
		<g>
			<path class="st1" d="M268.9,692.3l-393.2,88.8"/>
		</g>
	</g>
	<g transform="matrix(0.6253889494084502, 0, 0, 0.6253889494084502, 1322.3016476413613, 185.97551440625278)">
		<g>
			<path class="st1" d="M471.7,143.2l-77.1-21.3"/>
		</g>
	</g>
	<g transform="matrix(0.6253889494084502, 0, 0, 0.6253889494084502, 1322.3016476413613, 185.97551440625278)">
		<g>
			<path class="st1" d="M574.8,210.2l-181.5-82.2"/>
		</g>
	</g>
	<g transform="matrix(0.6253889494084502, 0, 0, 0.6253889494084502, 1322.3016476413613, 185.97551440625278)">
		<g>
			<path class="st1" d="M533.6,171.1l52.8,37.9"/>
		</g>
	</g>
	<g transform="matrix(0.6253889494084502, 0, 0, 0.6253889494084502, 1322.3016476413613, 185.97551440625278)">
		<g>
			<path class="st2" d="M-435.2-51.9v26.2c0,2.4,2,4.4,4.4,4.4h66.2c2.4,0,4.4-2,4.4-4.4v-26.2c0-2.4-2-4.4-4.4-4.4h-66.2
				C-433.2-56.2-435.2-54.3-435.2-51.9z"/>
		</g>
	</g>
	<g transform="matrix(0.6253889494084502, 0, 0, 0.6253889494084502, 1051.9605173168834, 166.46922121221812)">
		<text transform="matrix(1.599 0 0 1.599 5.860353e-04 2.443479e-05)" class="st3 st4">1p4t_A</text>
	</g>
	<g transform="matrix(0.6253889494084502, 0, 0, 0.6253889494084502, 1322.3016476413613, 185.97551440625278)">
		<g>
			<path class="st2" d="M-639-30v26.2c0,2.4,2,4.4,4.4,4.4h66.2c2.4,0,4.4-2,4.4-4.4V-30c0-2.4-2-4.4-4.4-4.4h-66.2
				C-637.1-34.4-639-32.5-639-30z"/>
		</g>
	</g>
	<g transform="matrix(0.6253889494084502, 0, 0, 0.6253889494084502, 924.941365010455, 180.11809217190088)">
		<text transform="matrix(1.599 0 0 1.599 9.793905e-05 1.216243e-04)" class="st3 st4">1qjp_A</text>
	</g>
	<g transform="matrix(0.6253889494084502, 0, 0, 0.6253889494084502, 1322.3016476413613, 185.97551440625278)">
		<g>
			<path class="st2" d="M-520.2,91.7V118c0,2.4,2,4.4,4.4,4.4h66.2c2.4,0,4.4-2,4.4-4.4V91.7c0-2.4-2-4.4-4.4-4.4h-66.2
				C-518.2,87.3-520.2,89.3-520.2,91.7z"/>
		</g>
	</g>
	<g transform="matrix(0.6253889494084502, 0, 0, 0.6253889494084502, 1001.45829843369, 256.26979152069697)">
		<text transform="matrix(1.599 0 0 1.599 1.073532e-03 3.414375e-04)" class="st3 st4">4rlc_A</text>
	</g>
	<g transform="matrix(0.6253889494084502, 0, 0, 0.6253889494084502, 1322.3016476413613, 185.97551440625278)">
		<g>
			<path class="st5" d="M-846.1-77.1v26.2c0,2.4,2,4.4,4.4,4.4h66.2c2.4,0,4.4-2,4.4-4.4v-26.2c0-2.4-2-4.4-4.4-4.4h-66.2
				C-844.1-81.4-846.1-79.5-846.1-77.1z"/>
		</g>
	</g>
	<g transform="matrix(0.6253889494084502, 0, 0, 0.6253889494084502, 794.4437156972156, 150.7157722479104)">
		<text transform="matrix(1.599 0 0 1.599 -5.862351e-04 7.245490e-05)" class="st3 st4">3kvn_A</text>
	</g>
	<g transform="matrix(0.6253889494084502, 0, 0, 0.6253889494084502, 1322.3016476413613, 185.97551440625278)">
		<g>
			<path class="st6" d="M-1140,5v26.2c0,2.4,2,4.4,4.4,4.4h66.2c2.4,0,4.4-2,4.4-4.4V5c0-2.4-2-4.4-4.4-4.4h-66.2
				C-1138.1,0.6-1140,2.6-1140,5z"/>
		</g>
	</g>
	<g transform="matrix(0.6253889494084502, 0, 0, 0.6253889494084502, 609.9433259930067, 202.02724363005353)">
		<text transform="matrix(1.599 0 0 1.599 9.813892e-05 1.706938e-04)" class="st3 st4">2x9k_A</text>
	</g>
	<g transform="matrix(0.6253889494084502, 0, 0, 0.6253889494084502, 1322.3016476413613, 185.97551440625278)">
		<g>
			<path class="st7" d="M-1723.5,912.9v26.2c0,2.4,2,4.4,4.4,4.4h66.2c2.4,0,4.4-2,4.4-4.4v-26.2c0-2.4-2-4.4-4.4-4.4h-66.2
				C-1721.6,908.6-1723.5,910.5-1723.5,912.9z"/>
		</g>
	</g>
	<g transform="matrix(0.6253889494084502, 0, 0, 0.6253889494084502, 247.25682214544355, 769.8444624246703)">
		<text transform="matrix(1.599 0 0 1.599 2.388513e-05 3.910566e-04)" class="st0 st3 st4">5t3r_D</text>
	</g>
	<g transform="matrix(0.6253889494084502, 0, 0, 0.6253889494084502, 1322.3016476413613, 185.97551440625278)">
		<g>
			<path class="st7" d="M-1657.8,956.6v26.2c0,2.4,2,4.4,4.4,4.4h66.2c2.4,0,4.4-2,4.4-4.4v-26.2c0-2.4-2-4.4-4.4-4.4h-66.2
				C-1655.9,952.2-1657.8,954.2-1657.8,956.6z"/>
		</g>
	</g>
	<g transform="matrix(0.6253889494084502, 0, 0, 0.6253889494084502, 288.36347289258407, 797.1726311730337)">
		<text transform="matrix(1.599 0 0 1.599 4.885459e-04 3.910566e-04)" class="st0 st3 st4">4aip_A</text>
	</g>
	<g transform="matrix(0.6253889494084502, 0, 0, 0.6253889494084502, 1322.3016476413613, 185.97551440625278)">
		<g>
			<path class="st7" d="M-1769.3,856.3v26.2c0,2.4,2,4.4,4.4,4.4h66.2c2.4,0,4.4-2,4.4-4.4v-26.2c0-2.4-2-4.4-4.4-4.4h-66.2
				C-1767.3,851.9-1769.3,853.9-1769.3,856.3z"/>
		</g>
	</g>
	<g transform="matrix(0.6253889494084502, 0, 0, 0.6253889494084502, 216.99195147986296, 734.4188732929662)">
		<text transform="matrix(1.599 0 0 1.599 3.653726e-04 9.803898e-05)" class="st0 st3 st4">4epa_A</text>
	</g>
	<g transform="matrix(0.6253889494084502, 0, 0, 0.6253889494084502, 1322.3016476413613, 185.97551440625278)">
		<g>
			<path class="st7" d="M-1586.6,981.9v26.2c0,2.4,2,4.4,4.4,4.4h66.2c2.4,0,4.4-2,4.4-4.4v-26.2c0-2.4-2-4.4-4.4-4.4h-66.2
				C-1584.6,977.5-1586.6,979.5-1586.6,981.9z"/>
		</g>
	</g>
	<g transform="matrix(0.6253889494084502, 0, 0, 0.6253889494084502, 331.1181059701544, 812.9605721471929)">
		<text transform="matrix(1.599 0 0 1.599 9.763923e-05 5.860353e-04)" class="st0 st3 st4">3v8x_A</text>
	</g>
	<g transform="matrix(0.6253889494084502, 0, 0, 0.6253889494084502, 1322.3016476413613, 185.97551440625278)">
		<g>
			<path class="st7" d="M-1801.8,788v26.2c0,2.4,2,4.4,4.4,4.4h66.2c2.4,0,4.4-2,4.4-4.4V788c0-2.4-2-4.4-4.4-4.4h-66.2
				C-1799.9,783.6-1801.8,785.6-1801.8,788z"/>
		</g>
	</g>
	<g transform="matrix(0.6253889494084502, 0, 0, 0.6253889494084502, 198.45014630013594, 691.7296648161824)">
		<text transform="matrix(1.599 0 0 1.599 7.245490e-05 -2.923181e-04)" class="st0 st3 st4">4rdr_A</text>
	</g>
	<g transform="matrix(0.6253889494084502, 0, 0, 0.6253889494084502, 1322.3016476413613, 185.97551440625278)">
		<g>
			<path class="st7" d="M-1510,984.3v26.2c0,2.4,2,4.4,4.4,4.4h66.2c2.4,0,4.4-2,4.4-4.4v-26.2c0-2.4-2-4.4-4.4-4.4h-66.2
				C-1508,979.9-1510,981.9-1510,984.3z"/>
		</g>
	</g>
	<g transform="matrix(0.6253889494084502, 0, 0, 0.6253889494084502, 380.54528491370314, 814.4927445366737)">
		<text transform="matrix(1.599 0 0 1.599 1.953284e-04 6.828750e-04)" class="st0 st3 st4">5fq8_B</text>
	</g>
	<g transform="matrix(0.6253889494084502, 0, 0, 0.6253889494084502, 1322.3016476413613, 185.97551440625278)">
		<g>
			<path class="st7" d="M-1436.8,974v26.2c0,2.4,2,4.4,4.4,4.4h66.2c2.4,0,4.4-2,4.4-4.4V974c0-2.4-2-4.4-4.4-4.4h-66.2
				C-1434.8,969.6-1436.8,971.6-1436.8,974z"/>
		</g>
	</g>
	<g transform="matrix(0.6253889494084502, 0, 0, 0.6253889494084502, 425.73849211370435, 808.0522766011399)">
		<text transform="matrix(1.599 0 0 1.599 -3.417873e-04 7.809140e-04)" class="st0 st3 st4">3fhh_A</text>
	</g>
	<g transform="matrix(0.6253889494084502, 0, 0, 0.6253889494084502, 1322.3016476413613, 185.97551440625278)">
		<g>
			<path class="st7" d="M-1815.6,713.7v26.2c0,2.4,2,4.4,4.4,4.4h66.2c2.4,0,4.4-2,4.4-4.4v-26.2c0-2.4-2-4.4-4.4-4.4h-66.2
				C-1813.7,709.3-1815.6,711.2-1815.6,713.7z"/>
		</g>
	</g>
	<g transform="matrix(0.6253889494084502, 0, 0, 0.6253889494084502, 188.1637500817285, 645.2249501141838)">
		<text transform="matrix(1.599 0 0 1.599 4.884960e-04 -5.862351e-04)" class="st0 st3 st4">4zgv_A</text>
	</g>
	<g transform="matrix(0.6253889494084502, 0, 0, 0.6253889494084502, 1322.3016476413613, 185.97551440625278)">
		<g>
			<path class="st5" d="M-807.3-149.6v26.2c0,2.4,2,4.4,4.4,4.4h66.2c2.4,0,4.4-2,4.4-4.4v-26.2c0-2.4-2-4.4-4.4-4.4h-66.2
				C-805.4-154-807.3-152-807.3-149.6z"/>
		</g>
	</g>
	<g transform="matrix(0.6253889494084502, 0, 0, 0.6253889494084502, 818.8440763043144, 105.35494313642798)">
		<text transform="matrix(1.599 0 0 1.599 -4.876965e-04 6.151172e-05)" class="st3 st4">1uyn_X</text>
	</g>
	<g transform="matrix(0.6253889494084502, 0, 0, 0.6253889494084502, 1322.3016476413613, 185.97551440625278)">
		<g>
			<path class="st5" d="M-990.1-224.1v26.2c0,2.4,2,4.4,4.4,4.4h66.2c2.4,0,4.4-2,4.4-4.4v-26.2c0-2.4-2-4.4-4.4-4.4h-66.2
				C-988.1-228.5-990.1-226.5-990.1-224.1z"/>
		</g>
	</g>
	<g transform="matrix(0.6253889494084502, 0, 0, 0.6253889494084502, 702.3758814228577, 58.761930034330604)">
		<text transform="matrix(1.599 0 0 1.599 1.959780e-04 -3.361907e-04)" class="st3 st4">4mee_A</text>
	</g>
	<g transform="matrix(0.6253889494084502, 0, 0, 0.6253889494084502, 1322.3016476413613, 185.97551440625278)">
		<g>
			<path class="st8" d="M-614.9-238.3v26.2c0,2.4,2,4.4,4.4,4.4h66.2c2.4,0,4.4-2,4.4-4.4v-26.2c0-2.4-2-4.4-4.4-4.4h-66.2
				C-613-242.7-614.9-240.7-614.9-238.3z"/>
		</g>
	</g>
	<g transform="matrix(0.6253889494084502, 0, 0, 0.6253889494084502, 940.0703268084311, 49.86684673454509)">
		<text transform="matrix(1.599 0 0 1.599 0 5.428621e-04)" class="st3 st4">1i78_A</text>
	</g>
	<g transform="matrix(0.6253889494084502, 0, 0, 0.6253889494084502, 1322.3016476413613, 185.97551440625278)">
		<g>
			<path class="st8" d="M-486.4-198.8v26.2c0,2.4,2,4.4,4.4,4.4h66.2c2.4,0,4.4-2,4.4-4.4v-26.2c0-2.4-2-4.4-4.4-4.4H-482
				C-484.4-203.1-486.4-201.2-486.4-198.8z"/>
		</g>
	</g>
	<g transform="matrix(0.6253889494084502, 0, 0, 0.6253889494084502, 1020.7155563583657, 74.6088447589072)">
		<text transform="matrix(1.599 0 0 1.599 3.906568e-04 6.031246e-05)" class="st3 st4">2vdf_A</text>
	</g>
	<g transform="matrix(0.6253889494084502, 0, 0, 0.6253889494084502, 1322.3016476413613, 185.97551440625278)">
		<g>
			<path class="st5" d="M-857.2-257.6v26.2c0,2.4,2,4.4,4.4,4.4h66.2c2.4,0,4.4-2,4.4-4.4v-26.2c0-2.4-2-4.4-4.4-4.4h-66.2
				C-855.3-262-857.2-260-857.2-257.6z"/>
		</g>
	</g>
	<g transform="matrix(0.6253889494084502, 0, 0, 0.6253889494084502, 787.4420619502679, 37.79845081501868)">
		<text transform="matrix(1.599 0 0 1.599 4.873966e-04 6.046237e-04)" class="st3 st4">3aeh_A</text>
	</g>
	<g transform="matrix(0.6253889494084502, 0, 0, 0.6253889494084502, 1322.3016476413613, 185.97551440625278)">
		<g>
			<path class="st2" d="M-927.5,204.8v26.2c0,2.4,2,4.4,4.4,4.4h66.2c2.4,0,4.4-2,4.4-4.4v-26.2c0-2.4-2-4.4-4.4-4.4h-66.2
				C-925.6,200.5-927.5,202.4-927.5,204.8z"/>
		</g>
	</g>
	<g transform="matrix(0.6253889494084502, 0, 0, 0.6253889494084502, 745.9614527352712, 327.01762258070437)">
		<text transform="matrix(1.599 0 0 1.599 7.804143e-04 -4.936927e-05)" class="st3 st4">4rl9_A</text>
	</g>
	<g transform="matrix(0.6253889494084502, 0, 0, 0.6253889494084502, 1322.3016476413613, 185.97551440625278)">
		<g>
			<path class="st6" d="M-1240.7,175.4v26.2c0,2.4,2,4.4,4.4,4.4h66.2c2.4,0,4.4-2,4.4-4.4v-26.2c0-2.4-2-4.4-4.4-4.4h-66.2
				C-1238.7,171-1240.7,173-1240.7,175.4z"/>
		</g>
	</g>
	<g transform="matrix(0.6253889494084502, 0, 0, 0.6253889494084502, 548.1886101645058, 308.6123635813527)">
		<text transform="matrix(1.599 0 0 1.599 -1.957781e-04 -9.803898e-05)" class="st3 st4">1t16_A</text>
	</g>
	<g transform="matrix(0.6253889494084502, 0, 0, 0.6253889494084502, 1322.3016476413613, 185.97551440625278)">
		<g>
			<path class="st6" d="M-1216.7,91.3v26.2c0,2.4,2,4.4,4.4,4.4h66.2c2.4,0,4.4-2,4.4-4.4V91.3c0-2.4-2-4.4-4.4-4.4h-66.2
				C-1214.8,87-1216.7,88.9-1216.7,91.3z"/>
		</g>
	</g>
	<g transform="matrix(0.6253889494084502, 0, 0, 0.6253889494084502, 562.3455929458964, 256.0310241729316)">
		<text transform="matrix(1.599 0 0 1.599 1.952785e-04 3.421870e-04)" class="st3 st4">3bs0_A</text>
	</g>
	<g transform="matrix(0.6253889494084502, 0, 0, 0.6253889494084502, 1322.3016476413613, 185.97551440625278)">
		<g>
			<path class="st9" d="M-1452,112.9v26.2c0,2.4,2,4.4,4.4,4.4h66.2c2.4,0,4.4-2,4.4-4.4v-26.2c0-2.4-2-4.4-4.4-4.4h-66.2
				C-1450,108.5-1452,110.5-1452,112.9z"/>
		</g>
	</g>
	<g transform="matrix(0.6253889494084502, 0, 0, 0.6253889494084502, 415.1427604432702, 269.5235502809318)">
		<text transform="matrix(1.599 0 0 1.599 -2.924180e-04 -1.958781e-04)" class="st3 st4">4y25_A</text>
	</g>
	<g transform="matrix(0.6253889494084502, 0, 0, 0.6253889494084502, 1322.3016476413613, 185.97551440625278)">
		<g>
			<path class="st6" d="M-1157.8,259.2v26.2c0,2.4,2,4.4,4.4,4.4h66.2c2.4,0,4.4-2,4.4-4.4v-26.2c0-2.4-2-4.4-4.4-4.4h-66.2
				C-1155.9,254.9-1157.8,256.8-1157.8,259.2z"/>
		</g>
	</g>
	<g transform="matrix(0.6253889494084502, 0, 0, 0.6253889494084502, 600.4885169115507, 361.02842380575663)">
		<text transform="matrix(1.599 0 0 1.599 -3.897574e-04 -1.466088e-04)" class="st3 st4">3bry_A</text>
	</g>
	<g transform="matrix(0.6253889494084502, 0, 0, 0.6253889494084502, 1322.3016476413613, 185.97551440625278)">
		<g>
			<path class="st6" d="M-1069.4,155.7V182c0,2.4,2,4.4,4.4,4.4h66.2c2.4,0,4.4-2,4.4-4.4v-26.2c0-2.4-2-4.4-4.4-4.4h-66.2
				C-1067.4,151.3-1069.4,153.3-1069.4,155.7z"/>
		</g>
	</g>
	<g transform="matrix(0.6253889494084502, 0, 0, 0.6253889494084502, 653.3986206645309, 296.2970794950311)">
		<text transform="matrix(1.599 0 0 1.599 -2.934174e-04 -3.421870e-04)" class="st3 st4">3dwo_X</text>
	</g>
	<g transform="matrix(0.6253889494084502, 0, 0, 0.6253889494084502, 1322.3016476413613, 185.97551440625278)">
		<g>
			<path class="st2" d="M-339.3,207.1v26.2c0,2.4,2,4.4,4.4,4.4h66.2c2.4,0,4.4-2,4.4-4.4v-26.2c0-2.4-2-4.4-4.4-4.4h-66.2
				C-337.3,202.7-339.3,204.6-339.3,207.1z"/>
		</g>
	</g>
	<g transform="matrix(0.6253889494084502, 0, 0, 0.6253889494084502, 1112.3793918143313, 328.40161626525344)">
		<text transform="matrix(1.599 0 0 1.599 7.800145e-04 1.171671e-03)" class="st3 st4">1qj8_A</text>
	</g>
	<g transform="matrix(0.6253889494084502, 0, 0, 0.6253889494084502, 1322.3016476413613, 185.97551440625278)">
		<g>
			<path class="st6" d="M-416.9,348v26.2c0,2.4,2,4.4,4.4,4.4h66.2c2.4,0,4.4-2,4.4-4.4V348c0-2.4-2-4.4-4.4-4.4h-66.2
				C-415,343.6-416.9,345.5-416.9,348z"/>
		</g>
	</g>
	<g transform="matrix(0.6253889494084502, 0, 0, 0.6253889494084502, 1061.7833684057978, 416.52341002119965)">
		<text transform="matrix(1.599 0 0 1.599 -1.948787e-04 4.876965e-05)" class="st3 st4">4d5b_A</text>
	</g>
	<g transform="matrix(0.6253889494084502, 0, 0, 0.6253889494084502, 1322.3016476413613, 185.97551440625278)">
		<g>
			<path class="st5" d="M-660.9,506.5v26.2c0,2.4,2,4.4,4.4,4.4h66.2c2.4,0,4.4-2,4.4-4.4v-26.2c0-2.4-2-4.4-4.4-4.4h-66.2
				C-658.9,502.1-660.9,504-660.9,506.5z"/>
		</g>
	</g>
	<g transform="matrix(0.6253889494084502, 0, 0, 0.6253889494084502, 909.2870978705748, 515.6443521626105)">
		<text transform="matrix(1.599 0 0 1.599 0 2.930176e-04)" class="st3 st4">5o65_A</text>
	</g>
	<g transform="matrix(0.6253889494084502, 0, 0, 0.6253889494084502, 1322.3016476413613, 185.97551440625278)">
		<g>
			<path class="st5" d="M-303.3,489.8v26.2c0,2.4,2,4.4,4.4,4.4h66.2c2.4,0,4.4-2,4.4-4.4v-26.2c0-2.4-2-4.4-4.4-4.4h-66.2
				C-301.3,485.5-303.3,487.4-303.3,489.8z"/>
		</g>
	</g>
	<g transform="matrix(0.6253889494084502, 0, 0, 0.6253889494084502, 1134.0632955138615, 505.25241392484793)">
		<text transform="matrix(1.599 0 0 1.599 1.959780e-04 -7.321443e-04)" class="st3 st4">4e1s_A</text>
	</g>
	<g transform="matrix(0.6253889494084502, 0, 0, 0.6253889494084502, 1322.3016476413613, 185.97551440625278)">
		<g>
			<path class="st2" d="M-680,284.4v26.2c0,2.4,2,4.4,4.4,4.4h66.2c2.4,0,4.4-2,4.4-4.4v-26.2c0-2.4-2-4.4-4.4-4.4h-66.2
				C-678,280-680,282-680,284.4z"/>
		</g>
	</g>
	<g transform="matrix(0.6253889494084502, 0, 0, 0.6253889494084502, 897.7475953399037, 376.77122791268727)">
		<text transform="matrix(1.599 0 0 1.599 6.825752e-04 3.907568e-04)" class="st3 st4">2x27_X</text>
	</g>
	<g transform="matrix(0.6253889494084502, 0, 0, 0.6253889494084502, 1322.3016476413613, 185.97551440625278)">
		<g>
			<path class="st2" d="M-535.1,206.6v26.2c0,2.4,2,4.4,4.4,4.4h66.2c2.4,0,4.4-2,4.4-4.4v-26.2c0-2.4-2-4.4-4.4-4.4h-66.2
				C-533.2,202.2-535.1,204.2-535.1,206.6z"/>
		</g>
	</g>
	<g transform="matrix(0.6253889494084502, 0, 0, 0.6253889494084502, 991.7156440112008, 328.1142003447329)">
		<text transform="matrix(1.599 0 0 1.599 2.931176e-04 9.723948e-05)" class="st3 st4">2lhf_A</text>
	</g>
	<g transform="matrix(0.6253889494084502, 0, 0, 0.6253889494084502, 1322.3016476413613, 185.97551440625278)">
		<g>
			<path class="st5" d="M-661.4,597.8v26.2c0,2.4,2,4.4,4.4,4.4h66.2c2.4,0,4.4-2,4.4-4.4v-26.2c0-2.4-2-4.4-4.4-4.4h-66.2
				C-659.5,593.5-661.4,595.4-661.4,597.8z"/>
		</g>
	</g>
	<g transform="matrix(0.6253889494084502, 0, 0, 0.6253889494084502, 912.3777804409851, 572.7866336356627)">
		<text transform="matrix(1.599 0 0 1.599 1.945789e-04 7.809140e-04)" class="st3 st4">4rl8_A</text>
	</g>
	<g transform="matrix(0.6253889494084502, 0, 0, 0.6253889494084502, 1322.3016476413613, 185.97551440625278)">
		<g>
			<path class="st2" d="M-617.8,365.3v26.2c0,2.4,2,4.4,4.4,4.4h66.2c2.4,0,4.4-2,4.4-4.4v-26.2c0-2.4-2-4.4-4.4-4.4h-66.2
				C-615.8,360.9-617.8,362.8-617.8,365.3z"/>
		</g>
	</g>
	<g transform="matrix(0.6253889494084502, 0, 0, 0.6253889494084502, 938.7271757859834, 427.3388713966673)">
		<text transform="matrix(1.599 0 0 1.599 5.853357e-04 0)" class="st3 st4">2erv_A</text>
	</g>
	<g transform="matrix(0.6253889494084502, 0, 0, 0.6253889494084502, 1322.3016476413613, 185.97551440625278)">
		<g>
			<path class="st7" d="M-1275.1,541v26.2c0,2.4,2,4.4,4.4,4.4h66.2c2.4,0,4.4-2,4.4-4.4V541c0-2.4-2-4.4-4.4-4.4h-66.2
				C-1273.2,536.6-1275.1,538.6-1275.1,541z"/>
		</g>
	</g>
	<g transform="matrix(0.6253889494084502, 0, 0, 0.6253889494084502, 526.7184242828306, 537.2598921165114)">
		<text transform="matrix(1.599 0 0 1.599 4.876965e-04 -1.956782e-04)" class="st0 st3 st4">5fp1_A</text>
	</g>
	<g transform="matrix(0.6253889494084502, 0, 0, 0.6253889494084502, 1322.3016476413613, 185.97551440625278)">
		<g>
			<path class="st7" d="M-1248.7,609.4v26.2c0,2.4,2,4.4,4.4,4.4h66.2c2.4,0,4.4-2,4.4-4.4v-26.2c0-2.4-2-4.4-4.4-4.4h-66.2
				C-1246.8,605-1248.7,607-1248.7,609.4z"/>
		</g>
	</g>
	<g transform="matrix(0.6253889494084502, 0, 0, 0.6253889494084502, 544.2730585024991, 580.035824451514)">
		<text transform="matrix(1.599 0 0 1.599 5.860353e-04 4.873966e-04)" class="st0 st3 st4">2iah_A</text>
	</g>
	<g transform="matrix(0.6253889494084502, 0, 0, 0.6253889494084502, 1322.3016476413613, 185.97551440625278)">
		<g>
			<path class="st7" d="M-1311,892.3v26.2c0,2.4,2,4.4,4.4,4.4h66.2c2.4,0,4.4-2,4.4-4.4v-26.2c0-2.4-2-4.4-4.4-4.4h-66.2
				C-1309.1,888-1311,889.9-1311,892.3z"/>
		</g>
	</g>
	<g transform="matrix(0.6253889494084502, 0, 0, 0.6253889494084502, 506.25510544873214, 756.9738708166207)">
		<text transform="matrix(1.599 0 0 1.599 1.220640e-03 1.171071e-03)" class="st0 st3 st4">3csl_A</text>
	</g>
	<g transform="matrix(0.6253889494084502, 0, 0, 0.6253889494084502, 1322.3016476413613, 185.97551440625278)">
		<g>
			<path class="st7" d="M-1781.9,567.7V594c0,2.4,2,4.4,4.4,4.4h66.2c2.4,0,4.4-2,4.4-4.4v-26.2c0-2.4-2-4.4-4.4-4.4h-66.2
				C-1779.9,563.4-1781.9,565.3-1781.9,567.7z"/>
		</g>
	</g>
	<g transform="matrix(0.6253889494084502, 0, 0, 0.6253889494084502, 206.66402552653398, 553.9738927404265)">
		<text transform="matrix(1.599 0 0 1.599 4.876965e-05 1.171071e-03)" class="st0 st3 st4">1kmo_A</text>
	</g>
	<g transform="matrix(0.6253889494084502, 0, 0, 0.6253889494084502, 1322.3016476413613, 185.97551440625278)">
		<g>
			<path class="st7" d="M-1539.2,409.4v26.2c0,2.4,2,4.4,4.4,4.4h66.2c2.4,0,4.4-2,4.4-4.4v-26.2c0-2.4-2-4.4-4.4-4.4h-66.2
				C-1537.3,405.1-1539.2,407-1539.2,409.4z"/>
		</g>
	</g>
	<g transform="matrix(0.6253889494084502, 0, 0, 0.6253889494084502, 362.10730407128017, 454.9754785853195)">
		<text transform="matrix(1.599 0 0 1.599 1.948787e-04 1.949786e-04)" class="st0 st3 st4">2hdi_A</text>
	</g>
	<g transform="matrix(0.6253889494084502, 0, 0, 0.6253889494084502, 1322.3016476413613, 185.97551440625278)">
		<g>
			<path class="st7" d="M-1463.9,414.2v26.2c0,2.4,2,4.4,4.4,4.4h66.2c2.4,0,4.4-2,4.4-4.4v-26.2c0-2.4-2-4.4-4.4-4.4h-66.2
				C-1461.9,409.8-1463.9,411.8-1463.9,414.2z"/>
		</g>
	</g>
	<g transform="matrix(0.6253889494084502, 0, 0, 0.6253889494084502, 407.82032003062244, 457.9454271929015)">
		<text transform="matrix(1.599 0 0 1.599 0 -1.958781e-04)" class="st0 st3 st4">4cu4_A</text>
	</g>
	<g transform="matrix(0.6253889494084502, 0, 0, 0.6253889494084502, 1322.3016476413613, 185.97551440625278)">
		<g>
			<path class="st7" d="M-1687.4,454.7v26.2c0,2.4,2,4.4,4.4,4.4h66.2c2.4,0,4.4-2,4.4-4.4v-26.2c0-2.4-2-4.4-4.4-4.4h-66.2
				C-1685.5,450.3-1687.4,452.3-1687.4,454.7z"/>
		</g>
	</g>
	<g transform="matrix(0.6253889494084502, 0, 0, 0.6253889494084502, 269.38308622917145, 483.26896556098154)">
		<text transform="matrix(1.599 0 0 1.599 3.418372e-04 9.278225e-04)" class="st0 st3 st4">3qlb_A</text>
	</g>
	<g transform="matrix(0.6253889494084502, 0, 0, 0.6253889494084502, 1322.3016476413613, 185.97551440625278)">
		<g>
			<path class="st5" d="M150.8-49.2V-23c0,2.4,2,4.4,4.4,4.4h66.2c2.4,0,4.4-2,4.4-4.4v-26.2c0-2.4-2-4.4-4.4-4.4h-66.2
				C152.8-53.6,150.8-51.6,150.8-49.2z"/>
		</g>
	</g>
	<g transform="matrix(0.6253889494084502, 0, 0, 0.6253889494084502, 1418.9524961947056, 168.122232533986)">
		<text transform="matrix(1.599 0 0 1.599 9.753929e-04 -2.681331e-04)" class="st3 st4">4fqe_A</text>
	</g>
	<g transform="matrix(0.6253889494084502, 0, 0, 0.6253889494084502, 1322.3016476413613, 185.97551440625278)">
		<g>
			<path class="st9" d="M20.7,428.5v26.2c0,2.4,2,4.4,4.4,4.4h66.2c2.4,0,4.4-2,4.4-4.4v-26.2c0-2.4-2-4.4-4.4-4.4H25.1
				C22.7,424.1,20.7,426.1,20.7,428.5z"/>
		</g>
	</g>
	<g transform="matrix(0.6253889494084502, 0, 0, 0.6253889494084502, 1335.4568400799037, 466.8760187977521)">
		<text transform="matrix(1.599 0 0 1.599 3.905569e-04 -4.866971e-05)" class="st3 st4">4d65_A</text>
	</g>
	<g transform="matrix(0.6253889494084502, 0, 0, 0.6253889494084502, 1322.3016476413613, 185.97551440625278)">
		<g>
			<path class="st9" d="M162,87.6v26.2c0,2.4,2,4.4,4.4,4.4h66.2c2.4,0,4.4-2,4.4-4.4V87.6c0-2.4-2-4.4-4.4-4.4h-66.2
				C164,83.2,162,85.2,162,87.6z"/>
		</g>
	</g>
	<g transform="matrix(0.6253889494084502, 0, 0, 0.6253889494084502, 1425.3574176544623, 253.68462754923135)">
		<text transform="matrix(1.599 0 0 1.599 0 -9.703961e-05)" class="st3 st4">2por_A</text>
	</g>
	<g transform="matrix(0.6253889494084502, 0, 0, 0.6253889494084502, 1322.3016476413613, 185.97551440625278)">
		<g>
			<path class="st5" d="M-3.4-9.5v26.2c0,2.4,2,4.4,4.4,4.4h66.2c2.4,0,4.4-2,4.4-4.4V-9.5c0-2.4-2-4.4-4.4-4.4H1
				C-1.4-13.9-3.4-11.9-3.4-9.5z"/>
		</g>
	</g>
	<g transform="matrix(0.6253889494084502, 0, 0, 0.6253889494084502, 1322.955364030594, 192.9820289548379)">
		<text transform="matrix(1.599 0 0 1.599 -3.899573e-04 6.346050e-04)" class="st3 st4">2wjr_A</text>
	</g>
	<g transform="matrix(0.6253889494084502, 0, 0, 0.6253889494084502, 1322.3016476413613, 185.97551440625278)">
		<g>
			<path class="st9" d="M-100.3,174.4v26.2c0,2.4,2,4.4,4.4,4.4h66.2c2.4,0,4.4-2,4.4-4.4v-26.2c0-2.4-2-4.4-4.4-4.4H-96
				C-98.4,170.1-100.3,172-100.3,174.4z"/>
		</g>
	</g>
	<g transform="matrix(0.6253889494084502, 0, 0, 0.6253889494084502, 1261.4156256534525, 307.9976147179824)">
		<text transform="matrix(1.599 0 0 1.599 5.862351e-04 6.825752e-04)" class="st3 st4">3a2s_X</text>
	</g>
	<g transform="matrix(0.6253889494084502, 0, 0, 0.6253889494084502, 1322.3016476413613, 185.97551440625278)">
		<g>
			<path class="st9" d="M209.6,440v26.2c0,2.4,2,4.4,4.4,4.4h66.2c2.4,0,4.4-2,4.4-4.4V440c0-2.4-2-4.4-4.4-4.4H214
				C211.5,435.6,209.6,437.5,209.6,440z"/>
		</g>
	</g>
	<g transform="matrix(0.6253889494084502, 0, 0, 0.6253889494084502, 1454.1318746897568, 474.06056751241783)">
		<text transform="matrix(1.599 0 0 1.599 0 -4.817002e-05)" class="st3 st4">6ehd_A</text>
	</g>
	<g transform="matrix(0.6253889494084502, 0, 0, 0.6253889494084502, 1322.3016476413613, 185.97551440625278)">
		<g>
			<path class="st10" d="M190.5,624.7v26.2c0,2.4,2,4.4,4.4,4.4h66.2c2.4,0,4.4-2,4.4-4.4v-26.2c0-2.4-2-4.4-4.4-4.4h-66.2
				C192.5,620.3,190.5,622.3,190.5,624.7z"/>
		</g>
	</g>
	<g transform="matrix(0.6253889494084502, 0, 0, 0.6253889494084502, 1444.5429909815434, 589.5817088523845)">
		<text transform="matrix(1.599 0 0 1.599 0 4.880962e-04)" class="st0 st3 st4">5ldv_A</text>
	</g>
	<g transform="matrix(0.6253889494084502, 0, 0, 0.6253889494084502, 1322.3016476413613, 185.97551440625278)">
		<g>
			<path class="st10" d="M-199.3,776.4v26.2c0,2.4,2,4.4,4.4,4.4h66.2c2.4,0,4.4-2,4.4-4.4v-26.2c0-2.4-2-4.4-4.4-4.4h-66.2
				C-197.3,772.1-199.3,774-199.3,776.4z"/>
		</g>
	</g>
	<g transform="matrix(0.6253889494084502, 0, 0, 0.6253889494084502, 1202.5256742636057, 684.4813900974251)">
		<text transform="matrix(1.599 0 0 1.599 -3.907568e-04 9.803898e-05)" class="st0 st3 st4">4frt_A</text>
	</g>
	<g transform="matrix(0.6253889494084502, 0, 0, 0.6253889494084502, 1322.3016476413613, 185.97551440625278)">
		<g>
			<path class="st10" d="M268.9,670.7v26.2c0,2.4,2,4.4,4.4,4.4h66.2c2.4,0,4.4-2,4.4-4.4v-26.2c0-2.4-2-4.4-4.4-4.4h-66.2
				C270.9,666.3,268.9,668.2,268.9,670.7z"/>
		</g>
	</g>
	<g transform="matrix(0.6253889494084502, 0, 0, 0.6253889494084502, 1493.1141344469484, 618.3302479740654)">
		<text transform="matrix(1.599 0 0 1.599 1.947788e-04 -2.924180e-04)" class="st0 st3 st4">4afk_A</text>
	</g>
	<g transform="matrix(0.6253889494084502, 0, 0, 0.6253889494084502, 1322.3016476413613, 185.97551440625278)">
		<g>
			<path class="st10" d="M-219.9,955.7v26.2c0,2.4,2,4.4,4.4,4.4h66.2c2.4,0,4.4-2,4.4-4.4v-26.2c0-2.4-2-4.4-4.4-4.4h-66.2
				C-218,951.3-219.9,953.3-219.9,955.7z"/>
		</g>
	</g>
	<g transform="matrix(0.6253889494084502, 0, 0, 0.6253889494084502, 1187.1148790117747, 796.5749541607144)">
		<text transform="matrix(1.599 0 0 1.599 5.858354e-04 3.906568e-04)" class="st0 st3 st4">5dl6_A</text>
	</g>
	<g transform="matrix(0.6253889494084502, 0, 0, 0.6253889494084502, 1322.3016476413613, 185.97551440625278)">
		<g>
			<path class="st9" d="M319.7,98.5v26.2c0,2.4,2,4.4,4.4,4.4h66.2c2.4,0,4.4-2,4.4-4.4V98.5c0-2.4-2-4.4-4.4-4.4h-66.2
				C321.6,94.1,319.7,96,319.7,98.5z"/>
		</g>
	</g>
	<g transform="matrix(0.6253889494084502, 0, 0, 0.6253889494084502, 1520.666403446897, 260.480383702995)">
		<text transform="matrix(1.599 0 0 1.599 -5.858354e-04 1.467087e-04)" class="st3 st4">5mdo_A</text>
	</g>
	<g transform="matrix(0.6253889494084502, 0, 0, 0.6253889494084502, 1322.3016476413613, 185.97551440625278)">
		<g>
			<path class="st9" d="M582,303v26.2c0,2.4,2,4.4,4.4,4.4h66.2c2.4,0,4.4-2,4.4-4.4V303c0-2.4-2-4.4-4.4-4.4h-66.2
				C583.9,298.6,582,300.5,582,303z"/>
		</g>
	</g>
	<g transform="matrix(0.6253889494084502, 0, 0, 0.6253889494084502, 1689.0423010070897, 388.3797430910959)">
		<text transform="matrix(1.599 0 0 1.599 9.765922e-04 2.443479e-04)" class="st3 st4">4rjw_A</text>
	</g>
	<g transform="matrix(0.6253889494084502, 0, 0, 0.6253889494084502, 1322.3016476413613, 185.97551440625278)">
		<g>
			<path class="st9" d="M471.7,140.5v26.2c0,2.4,2,4.4,4.4,4.4h66.2c2.4,0,4.4-2,4.4-4.4v-26.2c0-2.4-2-4.4-4.4-4.4h-66.2
				C473.7,136.1,471.7,138,471.7,140.5z"/>
		</g>
	</g>
	<g transform="matrix(0.6253889494084502, 0, 0, 0.6253889494084502, 1620.6256507706144, 286.7546113729064)">
		<text transform="matrix(1.599 0 0 1.599 5.861352e-04 4.394265e-04)" class="st3 st4">2fgr_A</text>
	</g>
	<g transform="matrix(0.6253889494084502, 0, 0, 0.6253889494084502, 1322.3016476413613, 185.97551440625278)">
		<g>
			<path class="st9" d="M573.3,213.4v26.2c0,2.4,2,4.4,4.4,4.4H644c2.4,0,4.4-2,4.4-4.4v-26.2c0-2.4-2-4.4-4.4-4.4h-66.2
				C575.3,209,573.3,211,573.3,213.4z"/>
		</g>
	</g>
	<g transform="matrix(0.6253889494084502, 0, 0, 0.6253889494084502, 1683.7814225920374, 332.3524090373396)">
		<text transform="matrix(1.599 0 0 1.599 -1.950786e-04 1.951785e-04)" class="st3 st4">4aui_A</text>
	</g>
</g>
<g>
	<g id="Artwork_2">
		<g>
			<defs>
				<rect id="SVGID_1_" x="191.8" y="134.2" width="215" height="236.4"/>
			</defs>
			<clipPath id="SVGID_2_">
				<use xlink:href="#SVGID_1_"  style="overflow:visible;"/>
			</clipPath>
			<g class="st11">
				<text transform="matrix(1 0 0 1 313.0762 182.7866)" class="st12 st13">8</text>
			</g>
			<g class="st11">
				<text transform="matrix(1 0 0 1 306.4043 211.5864)" class="st12 st13">10</text>
			</g>
			<g class="st11">
				<text transform="matrix(1 0 0 1 306.4043 240.3862)" class="st12 st13">12</text>
			</g>
			<g class="st11">
				<text transform="matrix(1 0 0 1 306.4043 269.187)" class="st12 st13">14</text>
			</g>
			<g class="st11">
				<text transform="matrix(1 0 0 1 306.4043 297.9868)" class="st12 st13">16</text>
			</g>
			<g class="st11">
				<text transform="matrix(1 0 0 1 306.4043 326.7866)" class="st12 st13">18</text>
			</g>
			<g class="st11">
				<text transform="matrix(1 0 0 1 306.4043 355.5864)" class="st12 st13">22</text>
			</g>
			<g class="st11">
				<defs>
					<rect id="SVGID_3_" x="191.8" y="134.2" width="215" height="236.4"/>
				</defs>
				<clipPath id="SVGID_4_">
					<use xlink:href="#SVGID_3_"  style="overflow:visible;"/>
				</clipPath>
				<g class="st14">
					<text transform="matrix(1 0 0 1 191.75 154.7866)" class="st12 st13">Strands Per Barrel</text>
				</g>
			</g>
			<rect x="250.8" y="161.6" class="st15" width="51" height="24"/>
			<rect x="250.8" y="190.6" class="st16" width="51" height="24"/>
			<rect x="250.8" y="219.6" class="st17" width="51" height="24"/>
			<rect x="250.8" y="248.3" class="st18" width="51" height="24"/>
			<rect x="251.1" y="276.9" class="st19" width="51" height="24"/>
			<rect x="251.1" y="306.3" class="st20" width="51" height="24"/>
			<rect x="251.1" y="333.9" class="st21" width="51" height="24"/>
		</g>
	</g>
	<rect x="250.2" y="333.4" class="st22" width="52" height="24"/>
</g>
<rect x="1215.2" y="65.4" class="st23" width="467" height="48"/>
<text transform="matrix(1 0 0 1 1215.25 99.7642)" class="st24 st12 st25">E-value &lt; 10</text>
<text transform="matrix(0.583 0 0 0.583 1486.0938 83.7803)" class="st24 st12 st25">-12</text>
<rect x="195.6" y="40.7" class="st23" width="54.8" height="52.6"/>
<text transform="matrix(1 0 0 1 195.625 83.658)" class="st24 st12 st26">D</text>
</svg>
